<svg width="201" height="80" viewBox="0 0 201 80" fill="none" xmlns="http://www.w3.org/2000/svg">
<path d="M201 46H1" stroke="#666E79" stroke-opacity="0.5" stroke-dasharray="2 2"/>
<path d="M1 38.6337L5 34.4752L9 36.5545L13 30.3168H17L21 27.7178L25.5 34.4752L29 44.8713L33 59.4257L37 63.5842L41 65.1436L45 63.5842L50 46.9505L53 34.4752L57 31.8762L61 26.1584L65 22L69 26.1584L73 34.4752L77 35.5149L81 40.1931L85 37.0743L89 38.1139L93 38.6337L97 36.5545L101 34.4752L105 38.6337L109 40.7129L113 51.1089L117 50.0693L121 64.6238L125 65.6634L129 71.901L133 74.5L137 72.4208L141 70.8614L145 64.104L149 62.0248L153 54.2277L157 55.7871L161 54.2277L165 51.1089" stroke="#666E79"/>
<path d="M49 14V76" stroke="#666E79" stroke-opacity="0.5" stroke-dasharray="2 2"/>
<circle cx="50" cy="47" r="1" fill="#9AC802"/>
</svg>
