<?xml version="1.0" standalone="no"?>
<!DOCTYPE svg PUBLIC "-//W3C//DTD SVG 20010904//EN"
 "http://www.w3.org/TR/2001/REC-SVG-20010904/DTD/svg10.dtd">
<svg version="1.0" xmlns="http://www.w3.org/2000/svg"
 width="220.000000pt" height="80.000000pt" viewBox="0 0 220.000000 80.000000"
 preserveAspectRatio="xMidYMid meet">

<g transform="translate(0.000000,80.000000) scale(0.100000,-0.100000)"
fill="#000000" stroke="none">
<path d="M1656 784 c-3 -9 -6 -42 -6 -74 0 -68 3 -70 95 -70 50 0 66 -4 75
-17 10 -17 10 -17 20 0 9 14 25 17 84 17 85 0 86 1 86 90 0 44 -4 59 -16 64
-9 3 -87 6 -174 6 -135 0 -159 -2 -164 -16z m134 -59 c0 -19 -4 -35 -10 -35
-5 0 -10 9 -10 19 0 11 -5 23 -12 27 -10 6 2 15 30 23 1 1 2 -15 2 -34z m134
26 c5 -1 3 -8 -4 -16 -10 -12 -10 -15 4 -15 9 0 16 -7 16 -15 0 -10 -9 -14
-25 -13 -14 1 -25 8 -25 14 0 6 -6 17 -14 23 -11 9 -12 6 -8 -15 4 -22 2 -25
-19 -22 -13 2 -29 -4 -36 -12 -11 -13 -12 -13 -13 1 0 18 26 33 41 23 5 -3 9
0 9 5 0 6 -4 11 -10 11 -5 0 -10 9 -10 21 0 18 5 19 43 15 23 -3 46 -5 51 -5z
m-179 -31 c3 -5 -1 -10 -10 -10 -9 0 -13 5 -10 10 3 6 8 10 10 10 2 0 7 -4 10
-10z"/>
<path d="M789 493 c-13 -16 -12 -17 4 -4 9 7 17 15 17 17 0 8 -8 3 -21 -13z"/>
<path d="M329 483 c-12 -16 -12 -17 1 -7 8 7 24 14 35 17 19 4 19 5 -1 6 -12
0 -28 -7 -35 -16z"/>
<path d="M260 456 c0 -3 9 -10 19 -15 14 -8 22 -7 32 7 11 14 11 15 -1 5 -9
-8 -19 -9 -32 -2 -10 5 -18 7 -18 5z"/>
<path d="M990 426 c0 -2 8 -10 18 -17 15 -13 16 -12 3 4 -13 16 -21 21 -21 13z"/>
<path d="M1128 413 c7 -3 16 -2 19 1 4 3 -2 6 -13 5 -11 0 -14 -3 -6 -6z"/>
<path d="M700 325 c0 -8 2 -15 4 -15 2 0 6 7 10 15 3 8 1 15 -4 15 -6 0 -10
-7 -10 -15z"/>
</g>
</svg>
