<svg width="881" height="240" viewBox="0 0 881 240" fill="none" xmlns="http://www.w3.org/2000/svg">
<path d="M881 46H681" stroke="#666E79" stroke-opacity="0.5" stroke-dasharray="2 2"/>
<path d="M681 38.6337L685 34.4752L689 36.5545L693 30.3168H697L701 27.7178L705.5 34.4752L709 44.8713L713 59.4257L717 63.5842L721 65.1436L725 63.5842L730 46.9505L733 34.4752L737 31.8762L739.5 29.5L744 28.5L749 29.5L753 34.4752L757 35.5148L761 40.1931L765 37.0743L769 38.1139L773 38.6337L777 36.5545L781 34.4752L785 38.6337L789 40.7129L793 51.1089L797 50.0693L801 64.6238L805 65.6634L809.5 67.5L813 68H816.5L821 67L825 64.104L829 62.0247L833 54.2277L837 55.7871L841 54.2277" stroke="#666E79"/>
<path d="M730 46.9505L733 34.4752L737 31.8762L739.5 29.5L744.5 28.5L749 29.5L753 34.4752L757 35.5149L761 40.1931L765 37.0743L769 38.1139L773 38.6337L777 36.5545L781 34.4752L785 38.6337L789 40.7129L791.4 46.9505H841V54.2277L837 55.7871L833 54.2277L829 62.0248L825 64.104L821.5 67L818 68H813.5L809 67.5L805 65.6634L801 64.6238L797 50.0693L793 51.1089L791.4 46.9505H730Z" fill="url(#paint0_linear)"/>
<path d="M730 46.9505L733 34.4752L737 31.8762L739.5 29.5L744 28.5L749 29.5L753 34.4752L757 35.5149L761 40.1931L765 37.0743L769 38.1139L773 38.6337L777 36.5545L781 34.4752L785 38.6337L789 40.7129L793 51.1089L797 50.0693L801 64.6238L805 65.6634L809 67.5L813 68H817.5L821.5 67L825 64.104L829 62.0248L833 54.2277L837 55.7871L841 54.2277" stroke="#FA4F4F" stroke-linecap="round"/>
<path d="M729 14V76" stroke="#666E79" stroke-opacity="0.5" stroke-dasharray="2 2"/>
<path d="M838 15L842 10L846 15L842 20L838 15Z" fill="#FA4F4F"/>
<rect x="824" width="36" height="16" rx="2" fill="#FA4F4F"/>
<g filter="url(#filter0_d)">
<path d="M833.734 8.71045H831.427V7.84912H833.734V8.71045ZM837.438 11H836.375V5.86279L834.806 6.39893V5.49805L837.302 4.57959H837.438V11ZM839.882 12.4414L839.306 12.0986C839.476 11.832 839.592 11.5991 839.653 11.3999C839.718 11.2036 839.751 11.0029 839.754 10.7979V9.96729H840.717L840.712 10.7363C840.709 11.0469 840.63 11.3574 840.475 11.668C840.323 11.9814 840.125 12.2393 839.882 12.4414ZM841.925 7.82715L842.272 4.60156H845.709V5.52441H843.16L842.984 7.05371C843.28 6.88379 843.614 6.79883 843.986 6.79883C844.596 6.79883 845.069 6.99365 845.406 7.3833C845.746 7.77295 845.916 8.29736 845.916 8.95654C845.916 9.60693 845.728 10.1255 845.353 10.5122C844.978 10.896 844.464 11.0879 843.811 11.0879C843.225 11.0879 842.738 10.9224 842.352 10.5913C841.968 10.2573 841.76 9.81787 841.728 9.27295H842.76C842.801 9.5835 842.913 9.82227 843.094 9.98926C843.276 10.1533 843.513 10.2354 843.806 10.2354C844.134 10.2354 844.389 10.1182 844.571 9.88379C844.755 9.64941 844.848 9.33008 844.848 8.92578C844.848 8.53613 844.747 8.22852 844.544 8.00293C844.342 7.77441 844.064 7.66016 843.709 7.66016C843.516 7.66016 843.352 7.68652 843.217 7.73926C843.083 7.78906 842.936 7.88867 842.778 8.03809L841.925 7.82715ZM846.711 5.83203C846.711 5.44531 846.835 5.12891 847.084 4.88281C847.333 4.63379 847.66 4.50928 848.064 4.50928C848.475 4.50928 848.803 4.63379 849.049 4.88281C849.298 5.12891 849.422 5.45264 849.422 5.854V6.17041C849.422 6.5542 849.298 6.86914 849.049 7.11523C848.803 7.36133 848.478 7.48438 848.073 7.48438C847.678 7.48438 847.351 7.36426 847.093 7.12402C846.838 6.88086 846.711 6.5542 846.711 6.14404V5.83203ZM847.458 6.17041C847.458 6.37256 847.514 6.53662 847.625 6.6626C847.739 6.78564 847.889 6.84717 848.073 6.84717C848.255 6.84717 848.401 6.78564 848.513 6.6626C848.624 6.53662 848.68 6.3667 848.68 6.15283V5.83203C848.68 5.62988 848.623 5.46582 848.508 5.33984C848.397 5.21387 848.249 5.15088 848.064 5.15088C847.88 5.15088 847.732 5.21533 847.621 5.34424C847.512 5.47021 847.458 5.63721 847.458 5.84521V6.17041ZM849.787 9.43115C849.787 9.03857 849.915 8.7207 850.169 8.47754C850.424 8.23438 850.75 8.11279 851.145 8.11279C851.543 8.11279 851.869 8.23438 852.121 8.47754C852.375 8.7207 852.503 9.04883 852.503 9.46191V9.77393C852.503 10.1548 852.38 10.4697 852.134 10.7188C851.891 10.9648 851.564 11.0879 851.154 11.0879C850.744 11.0879 850.413 10.9663 850.161 10.7231C849.912 10.4771 849.787 10.1533 849.787 9.75195V9.43115ZM850.534 9.77393C850.534 9.97314 850.591 10.1372 850.706 10.2661C850.823 10.3921 850.972 10.4551 851.154 10.4551C851.341 10.4551 851.488 10.395 851.593 10.2749C851.702 10.1519 851.756 9.98047 851.756 9.76074V9.43115C851.756 9.22607 851.699 9.06201 851.584 8.93896C851.47 8.81592 851.324 8.75439 851.145 8.75439C850.963 8.75439 850.815 8.81592 850.701 8.93896C850.59 9.06201 850.534 9.23193 850.534 9.44873V9.77393ZM848.293 10.521L847.744 10.2046L850.868 5.20361L851.417 5.52002L848.293 10.521Z" fill="white"/>
</g>
<circle cx="842" cy="54" r="2" fill="#FA4F4F"/>
<circle cx="730" cy="47" r="1" fill="#FA4F4F"/>
<circle cx="842" cy="54" r="1" fill="white"/>
<defs>
<filter id="filter0_d" x="829.427" y="2.50928" width="25.0762" height="11.9321" filterUnits="userSpaceOnUse" color-interpolation-filters="sRGB">
<feFlood flood-opacity="0" result="BackgroundImageFix"/>
<feColorMatrix in="SourceAlpha" type="matrix" values="0 0 0 0 0 0 0 0 0 0 0 0 0 0 0 0 0 0 127 0"/>
<feOffset/>
<feGaussianBlur stdDeviation="1"/>
<feColorMatrix type="matrix" values="0 0 0 0 0 0 0 0 0 0 0 0 0 0 0 0 0 0 0.15 0"/>
<feBlend mode="normal" in2="BackgroundImageFix" result="effect1_dropShadow"/>
<feBlend mode="normal" in="SourceGraphic" in2="effect1_dropShadow" result="shape"/>
</filter>
<linearGradient id="paint0_linear" x1="785.5" y1="22" x2="785.5" y2="74.5" gradientUnits="userSpaceOnUse">
<stop stop-color="#FA4F4F" stop-opacity="0.5"/>
<stop offset="0.515625" stop-color="#FA4F4F" stop-opacity="0"/>
<stop offset="1" stop-color="#FA4F4F" stop-opacity="0.5"/>
</linearGradient>
</defs>
</svg>
