<svg width="82" height="66" viewBox="0 0 82 66" fill="none" xmlns="http://www.w3.org/2000/svg">
<path d="M1 1C1 4 1 6 1 9C1 12 1 14 1 17C1 20 2.66666 22 2.66666 24.875C2.66666 27.75 1 30.125 1 33C1 35.875 81 37 81 41C81 45 1 46 1 49C1 52 1.32405 54.125 1.32405 57.125C1.32405 60.125 1 62.125 1 65" stroke="#9AC802"/>
<path d="M1 17C1 20 2.66666 22 2.66666 24.875C2.66666 27.75 1 30.125 1 33C1 35.875 81 37 81 41C81 45 1 46 1 49C1 52 1.32405 54.125 1.32405 57.125C1.32405 60.125 1 62.125 1 65V49V33V17Z" fill="url(#paint0_linear)"/>
<path d="M1 1H81" stroke="#666E79" stroke-opacity="0.5" stroke-dasharray="2 2"/>
<path d="M1 17H81" stroke="#666E79" stroke-opacity="0.5" stroke-dasharray="2 2"/>
<path d="M1 33H81" stroke="#666E79" stroke-opacity="0.5" stroke-dasharray="2 2"/>
<path d="M1 49H81" stroke="#666E79" stroke-opacity="0.5" stroke-dasharray="2 2"/>
<path d="M1 65H81" stroke="#666E79" stroke-opacity="0.5" stroke-dasharray="2 2"/>
<defs>
<linearGradient id="paint0_linear" x1="1" y1="65" x2="81" y2="65" gradientUnits="userSpaceOnUse">
<stop stop-color="#9AC802" stop-opacity="0"/>
<stop offset="1" stop-color="#9AC802" stop-opacity="0.5"/>
</linearGradient>
</defs>
</svg>
